<svg width="97" height="89" viewBox="0 0 97 89" fill="none" xmlns="http://www.w3.org/2000/svg">
<rect x="5" y="8" width="86" height="72" fill="white"/>
<path d="M10.7778 73.425C15.6278 69.0574 21.2646 65.6161 27.6881 63.101C34.1081 60.5892 41.0454 59.3333 48.5 59.3333C55.9546 59.3333 62.8937 60.5892 69.3173 63.101C75.7372 65.6161 81.3722 69.0574 86.2222 73.425V9.88889H10.7778V73.425ZM48.5 49.4444C43.2907 49.4444 38.8449 47.7551 35.1625 44.3764C31.4801 40.9977 29.6389 36.9185 29.6389 32.1389C29.6389 27.3593 31.4801 23.2801 35.1625 19.9014C38.8449 16.5227 43.2907 14.8333 48.5 14.8333C53.7093 14.8333 58.1551 16.5227 61.8375 19.9014C65.5199 23.2801 67.3611 27.3593 67.3611 32.1389C67.3611 36.9185 65.5199 40.9977 61.8375 44.3764C58.1551 47.7551 53.7093 49.4444 48.5 49.4444ZM10.7778 89C7.81389 89 5.27572 88.0325 3.16328 86.0976C1.05443 84.1594 0 81.8306 0 79.1111V9.88889C0 7.16944 1.05443 4.84061 3.16328 2.90239C5.27572 0.967462 7.81389 0 10.7778 0H86.2222C89.1861 0 91.7243 0.967462 93.8367 2.90239C95.9456 4.84061 97 7.16944 97 9.88889V79.1111C97 81.8306 95.9456 84.1594 93.8367 86.0976C91.7243 88.0325 89.1861 89 86.2222 89H10.7778Z" fill="#FFD233"/>
</svg>
