<svg width="31" height="31" viewBox="0 0 31 31" fill="none" xmlns="http://www.w3.org/2000/svg">
<path d="M28.5268 14.7184C27.4626 12.4764 26.1961 10.6478 24.7275 9.23287L23.1871 10.7732C24.4432 11.9735 25.5373 13.5438 26.4833 15.4995C23.9646 20.7126 20.3893 23.1889 15.5031 23.1889C14.0365 23.1889 12.6856 22.9631 11.4504 22.5114L9.78146 24.1804C11.497 24.9725 13.4042 25.3686 15.5031 25.3686C21.3217 25.3686 25.6629 22.3382 28.5268 16.2775C28.6419 16.0337 28.7016 15.7675 28.7016 15.498C28.7016 15.2284 28.6419 14.9622 28.5268 14.7184ZM26.6023 5.01154L25.3117 3.71947C25.2892 3.69695 25.2625 3.67909 25.2331 3.6669C25.2037 3.65471 25.1722 3.64844 25.1404 3.64844C25.1086 3.64844 25.077 3.65471 25.0476 3.6669C25.0182 3.67909 24.9915 3.69695 24.969 3.71947L21.658 7.02896C19.8325 6.09654 17.7809 5.63033 15.5031 5.63033C9.68458 5.63033 5.34337 8.6607 2.4795 14.7214C2.36439 14.9652 2.30469 15.2314 2.30469 15.501C2.30469 15.7705 2.36439 16.0368 2.4795 16.2805C3.62364 18.6903 5.00108 20.6218 6.61183 22.0752L3.40829 25.2778C3.36291 25.3232 3.33741 25.3848 3.33741 25.449C3.33741 25.5132 3.36291 25.5748 3.40829 25.6202L4.70066 26.9126C4.74608 26.9579 4.80766 26.9834 4.87186 26.9834C4.93607 26.9834 4.99764 26.9579 5.04306 26.9126L26.6023 5.35423C26.6248 5.33174 26.6427 5.30503 26.6549 5.27563C26.667 5.24623 26.6733 5.21471 26.6733 5.18289C26.6733 5.15106 26.667 5.11954 26.6549 5.09014C26.6427 5.06074 26.6248 5.03403 26.6023 5.01154ZM4.52296 15.4995C7.04474 10.2864 10.62 7.81001 15.5031 7.81001C17.1542 7.81001 18.6555 8.09337 20.0175 8.66948L17.8893 10.7977C16.8814 10.2599 15.7273 10.0604 14.5974 10.2284C13.4674 10.3964 12.4214 10.9232 11.6136 11.731C10.8058 12.5388 10.279 13.5848 10.111 14.7148C9.94292 15.8448 10.1425 16.9988 10.6803 18.0067L8.15486 20.5321C6.75714 19.2985 5.55226 17.6271 4.52296 15.4995ZM11.9914 15.4995C11.9919 14.9656 12.1184 14.4395 12.3605 13.9637C12.6026 13.4879 12.9535 13.0759 13.3847 12.7613C13.8159 12.4466 14.3153 12.2381 14.8422 12.1526C15.3692 12.0672 15.9088 12.1073 16.4174 12.2696L12.1522 16.5348C12.0453 16.2001 11.991 15.8508 11.9914 15.4995Z" fill="#B5B5B5"/>
<path d="M15.3781 18.8937C15.2733 18.8937 15.1701 18.8889 15.0678 18.8795L13.4688 20.4785C14.4305 20.8469 15.4784 20.9287 16.4856 20.7142C17.4929 20.4997 18.4165 19.998 19.1447 19.2697C19.873 18.5415 20.3747 17.6179 20.5892 16.6106C20.8037 15.6034 20.7219 14.5555 20.3535 13.5938L18.7545 15.1928C18.7639 15.2951 18.7687 15.3983 18.7687 15.5031C18.769 15.9484 18.6814 16.3894 18.5111 16.8009C18.3408 17.2124 18.0911 17.5863 17.7762 17.9012C17.4613 18.2161 17.0874 18.4658 16.6759 18.6361C16.2644 18.8064 15.8234 18.894 15.3781 18.8937Z" fill="#B5B5B5"/>
</svg>
