<svg width="98" height="98" viewBox="0 0 98 98" fill="none" xmlns="http://www.w3.org/2000/svg">
<path d="M18.375 70.4369L49 70.4368L49 85.7493C49.0001 86.355 49.1798 86.9469 49.5163 87.4504C49.8529 87.9539 50.3311 88.3464 50.8906 88.5781C51.4501 88.8099 52.0658 88.8705 52.6598 88.7524C53.2538 88.6343 53.7994 88.3427 54.2277 87.9145L90.9777 51.1645C91.5518 50.5902 91.8743 49.8114 91.8743 48.9993C91.8743 48.1873 91.5518 47.4085 90.9777 46.8342L54.2277 10.0842C53.7994 9.65599 53.2538 9.36442 52.6598 9.24631C52.0658 9.1282 51.4501 9.18884 50.8906 9.42058C50.3311 9.65232 49.8529 10.0447 49.5163 10.5483C49.1798 11.0518 49.0001 11.6437 49 12.2493L49 27.5618L18.375 27.5618C16.751 27.5635 15.1941 28.2093 14.0458 29.3576C12.8975 30.5059 12.2516 32.0629 12.25 33.6868L12.25 64.3119C12.2524 65.9356 12.8985 67.4921 14.0467 68.6402C15.1948 69.7883 16.7513 70.4344 18.375 70.4369ZM84.4821 48.9993L55.125 78.3565L55.125 64.3118L18.375 64.3119L18.375 33.6868L55.125 33.6868L55.125 19.6422L84.4821 48.9993Z" fill="white" fill-opacity="0.58"/>
</svg>
