<svg width="98" height="98" viewBox="0 0 98 98" fill="none" xmlns="http://www.w3.org/2000/svg">
<path d="M79.625 70.4369L49 70.4368L49 85.7493C48.9999 86.355 48.8202 86.9469 48.4837 87.4504C48.1471 87.9539 47.6689 88.3464 47.1094 88.5781C46.5499 88.8099 45.9342 88.8705 45.3402 88.7524C44.7462 88.6343 44.2006 88.3427 43.7723 87.9145L7.02231 51.1645C6.44818 50.5902 6.12565 49.8114 6.12565 48.9993C6.12565 48.1873 6.44818 47.4085 7.02231 46.8342L43.7723 10.0842C44.2006 9.65599 44.7462 9.36442 45.3402 9.24631C45.9342 9.1282 46.5499 9.18884 47.1094 9.42058C47.6689 9.65232 48.1471 10.0447 48.4837 10.5483C48.8202 11.0518 48.9999 11.6437 49 12.2493L49 27.5618L79.625 27.5618C81.249 27.5635 82.8059 28.2093 83.9542 29.3576C85.1025 30.5059 85.7484 32.0629 85.75 33.6868L85.75 64.3119C85.7476 65.9356 85.1015 67.4921 83.9533 68.6402C82.8052 69.7883 81.2487 70.4344 79.625 70.4369ZM13.5179 48.9993L42.875 78.3565L42.875 64.3118L79.625 64.3119L79.625 33.6868L42.875 33.6868L42.875 19.6422L13.5179 48.9993Z" fill="white" fill-opacity="0.56"/>
</svg>
