<svg width="16" height="12" viewBox="0 0 16 12" fill="none" xmlns="http://www.w3.org/2000/svg">
<path d="M7.22863 0.321732L0.603629 10.0717C0.527215 10.1843 0.482468 10.3159 0.474234 10.4525C0.466 10.5891 0.494592 10.7253 0.556914 10.8465C0.619236 10.9677 0.712915 11.0693 0.827804 11.1401C0.942694 11.211 1.07442 11.2484 1.20871 11.2485L14.4587 11.2485C14.5931 11.2486 14.7249 11.2112 14.8399 11.1404C14.9549 11.0696 15.0487 10.9681 15.1111 10.8469C15.1735 10.7256 15.2021 10.5893 15.1939 10.4527C15.1857 10.316 15.141 10.1843 15.0645 10.0717L8.43953 0.321732C8.37149 0.222402 8.28092 0.14128 8.17551 0.0852653C8.0701 0.0292507 7.95297 -3.22546e-07 7.83408 -3.27841e-07C7.7152 -3.33136e-07 7.59807 0.0292507 7.49266 0.0852653C7.38725 0.14128 7.29667 0.222401 7.22863 0.321732Z" fill="#6CD33B"/>
</svg>
