<svg width="16" height="12" viewBox="0 0 16 12" fill="none" xmlns="http://www.w3.org/2000/svg">
<path d="M8.43543 11.6783L15.0604 1.92827C15.1368 1.81575 15.1816 1.68408 15.1898 1.5475C15.1981 1.41093 15.1695 1.27467 15.1071 1.15346C15.0448 1.03226 14.9511 0.930741 14.8363 0.859891C14.7214 0.789041 14.5896 0.751565 14.4554 0.751519L1.20535 0.751518C1.07099 0.751427 0.939173 0.788804 0.824178 0.859598C0.709182 0.930393 0.615397 1.03191 0.552987 1.15313C0.490576 1.27436 0.46192 1.41068 0.470124 1.54732C0.478329 1.68395 0.523081 1.8157 0.59953 1.92827L7.22453 11.6783C7.29257 11.7776 7.38314 11.8587 7.48856 11.9147C7.59397 11.9707 7.71109 12 7.82998 12C7.94887 12 8.066 11.9707 8.17141 11.9147C8.27682 11.8587 8.36739 11.7776 8.43543 11.6783Z" fill="#6CD33B"/>
</svg>
