<svg width="75" height="64" viewBox="0 0 75 64" fill="none" xmlns="http://www.w3.org/2000/svg">
<rect width="75" height="64" rx="7" transform="matrix(1 0 0 -1 0 64)" fill="#C9397E"/>
<g clip-path="url(#clip0_2422_338)">
<path d="M35.5333 10V15.8667H38.4667V10H35.5333ZM24.8384 20.6949L20.4384 16.2949L18.3616 18.3717L22.7616 22.7717L24.8384 20.6949ZM51.2384 22.7717L55.6384 18.3717L53.5616 16.2949L49.1616 20.6949L51.2384 22.7717ZM37 18.8C34.2038 18.7995 31.5013 19.808 29.3889 21.6402C27.2765 23.4723 25.8962 26.0051 25.5013 28.7733L25.472 28.9787C25.249 30.5208 25.3393 32.0921 25.7375 33.5986C26.1356 35.1051 26.8335 36.5158 27.7893 37.7464C28.9128 39.1984 29.6667 40.5859 29.6667 41.9763V46.6667C29.6667 47.0557 29.8212 47.4287 30.0962 47.7038C30.3713 47.9788 30.7443 48.1333 31.1333 48.1333H42.8667C43.2557 48.1333 43.6287 47.9788 43.9038 47.7038C44.1788 47.4287 44.3333 47.0557 44.3333 46.6667V41.9763C44.3333 40.5859 45.0872 39.1984 46.2107 37.7464C48.0587 35.3587 48.9915 32.2464 48.528 28.9757L48.4987 28.7704C48.1032 26.0027 46.7226 23.4706 44.6102 21.639C42.4979 19.8075 39.7958 18.7994 37 18.8V18.8ZM15 33.4667H20.8667V30.5333H15V33.4667ZM53.1333 33.4667H59V30.5333H53.1333V33.4667ZM32.6 54H41.4V51.0667H32.6V54Z" fill="white"/>
</g>
<defs>
<clipPath id="clip0_2422_338">
<rect width="44" height="44" fill="white" transform="translate(15 10)"/>
</clipPath>
</defs>
</svg>
