<svg width="75" height="64" viewBox="0 0 75 64" fill="none" xmlns="http://www.w3.org/2000/svg">
<rect width="75" height="64" rx="7" transform="matrix(1 0 0 -1 0 64)" fill="#009CF3"/>
<path d="M49.9255 29.6287H63.196C63.3563 29.6287 63.5133 29.6745 63.6485 29.7605C63.7838 29.8466 63.8918 29.9694 63.9598 30.1146C64.0278 30.2598 64.053 30.4214 64.0325 30.5804C64.012 30.7394 63.9466 30.8892 63.844 31.0124L57.2087 38.9774C57.1295 39.0724 57.0304 39.1488 56.9185 39.2012C56.8065 39.2536 56.6844 39.2808 56.5607 39.2808C56.4371 39.2808 56.3149 39.2536 56.203 39.2012C56.091 39.1488 55.9919 39.0724 55.9127 38.9774L49.2775 31.0124C49.1749 30.8892 49.1095 30.7394 49.089 30.5804C49.0685 30.4214 49.0937 30.2598 49.1617 30.1146C49.2297 29.9694 49.3376 29.8466 49.4729 29.7605C49.6081 29.6745 49.7651 29.6287 49.9255 29.6287V29.6287ZM12.8005 36.3787H26.071C26.2313 36.3786 26.3883 36.3329 26.5235 36.2468C26.6588 36.1608 26.7668 36.038 26.8348 35.8928C26.9028 35.7476 26.928 35.586 26.9075 35.427C26.887 35.268 26.8216 35.1181 26.719 34.9949L20.0837 27.0299C20.0045 26.935 19.9054 26.8586 19.7935 26.8062C19.6815 26.7537 19.5594 26.7266 19.4357 26.7266C19.3121 26.7266 19.1899 26.7537 19.078 26.8062C18.966 26.8586 18.8669 26.935 18.7877 27.0299L12.1525 34.9949C12.0499 35.1181 11.9845 35.268 11.964 35.427C11.9435 35.586 11.9687 35.7476 12.0367 35.8928C12.1047 36.038 12.2126 36.1608 12.3479 36.2468C12.4832 36.3329 12.6401 36.3786 12.8005 36.3787V36.3787Z" fill="white"/>
<path fill-rule="evenodd" clip-rule="evenodd" d="M37.9972 16.1254C32.7592 16.1254 28.0747 18.5115 24.9798 22.2611C24.8416 22.4402 24.6688 22.5897 24.4717 22.7007C24.2746 22.8117 24.0571 22.882 23.8323 22.9072C23.6075 22.9325 23.3799 22.9123 23.163 22.8479C22.9462 22.7834 22.7445 22.676 22.57 22.5321C22.3954 22.3881 22.2516 22.2105 22.1471 22.0099C22.0426 21.8092 21.9795 21.5896 21.9616 21.3641C21.9436 21.1385 21.9712 20.9117 22.0427 20.6971C22.1142 20.4824 22.2281 20.2843 22.3777 20.1146C24.8489 17.1228 28.1273 14.9036 31.8232 13.7212C35.5191 12.5387 39.4768 12.4427 43.2257 13.4446C46.9746 14.4464 50.3568 16.5039 52.9701 19.3724C55.5834 22.2409 57.3179 25.7996 57.9671 29.6254H54.5347C53.7555 25.8143 51.6841 22.3893 48.6708 19.9295C45.6574 17.4696 41.8871 16.1258 37.9972 16.1254V16.1254ZM21.4597 36.3754C22.0986 39.496 23.6074 42.3721 25.8117 44.6716C28.016 46.971 30.8259 48.5999 33.9167 49.3701C37.0076 50.1402 40.2532 50.0202 43.2787 49.0239C46.3042 48.0275 48.9861 46.1956 51.0146 43.7396C51.1528 43.5605 51.3256 43.411 51.5227 43.3C51.7199 43.189 51.9373 43.1188 52.1621 43.0935C52.3869 43.0682 52.6146 43.0884 52.8314 43.1528C53.0483 43.2173 53.25 43.3247 53.4245 43.4687C53.599 43.6126 53.7428 43.7902 53.8473 43.9909C53.9518 44.1915 54.0149 44.4111 54.0329 44.6366C54.0508 44.8622 54.0232 45.089 53.9517 45.3036C53.8802 45.5183 53.7663 45.7164 53.6167 45.8861C51.1456 48.878 47.8671 51.0971 44.1712 52.2795C40.4754 53.462 36.5176 53.558 32.7688 52.5562C29.0199 51.5543 25.6377 49.4968 23.0243 46.6283C20.411 43.7598 18.6766 40.2011 18.0273 36.3754H21.4597Z" fill="white"/>
</svg>
